<svg width="255" height="74" viewBox="0 0 255 74" fill="none" xmlns="http://www.w3.org/2000/svg">
<path d="M26.4221 50.8029H18.4307L21.7425 35.0999L13.2111 50.8029H8.31542L6.69553 34.5547L3.23977 50.8029H0L4.85966 27.7209H14.039L15.1549 40.7341L22.0665 27.7209H31.3178L26.4221 50.8029Z" fill="#18162D"/>
<path d="M29.6529 50.8029L34.5126 27.7209H44.1959C45.6838 27.7209 46.9797 27.8785 48.0836 28.1935C49.2115 28.4843 50.1355 28.9811 50.8554 29.6838C51.5994 30.3866 52.1513 31.3074 52.5113 32.4464C52.8953 33.5853 53.0873 34.9787 53.0873 36.6266C53.0873 38.3956 52.8593 40.1283 52.4033 41.8246C51.9713 43.5209 51.2394 45.0355 50.2075 46.3683C49.1755 47.7011 47.8196 48.7795 46.1398 49.6034C44.4839 50.4031 42.432 50.8029 39.9842 50.8029H29.6529ZM39.5162 48.2584C40.3082 48.2584 41.0041 47.9313 41.6041 47.277C42.228 46.5985 42.756 45.7503 43.188 44.7325C43.6439 43.6905 44.0159 42.5516 44.3039 41.3157C44.6159 40.0556 44.8558 38.8439 45.0238 37.6807C45.2158 36.5175 45.3478 35.4755 45.4198 34.5547C45.5158 33.6338 45.5638 32.9795 45.5638 32.5918C45.5638 31.8406 45.4078 31.259 45.0958 30.847C44.8079 30.4108 44.2919 30.1927 43.5479 30.1927H41.8201L37.9683 48.2584H39.5162Z" fill="#18162D"/>
<path d="M72.3934 50.8029H63.97L63.4661 45.0233H56.8065L54.2507 50.8029H50.759L61.3782 27.7209H69.9096L72.3934 50.8029ZM57.9945 42.3698H63.2141L62.3861 32.4827L57.9945 42.3698Z" fill="#18162D"/>
<path d="M112.691 34.8574C112.764 34.504 112.801 34.0209 112.801 33.4082C112.801 33.0547 112.777 32.713 112.728 32.3831C112.679 32.0296 112.593 31.7233 112.471 31.4641C112.349 31.1813 112.166 30.9692 111.922 30.8278C111.677 30.6629 111.36 30.5804 110.969 30.5804C110.53 30.5804 110.127 30.6746 109.76 30.8632C109.394 31.0517 109.064 31.2991 108.771 31.6055C108.502 31.8882 108.283 32.2299 108.112 32.6305C107.965 33.0076 107.892 33.4082 107.892 33.8324C107.892 34.445 108.05 34.9163 108.368 35.2463C108.71 35.5762 109.15 35.8472 109.687 36.0592C110.224 36.2713 110.835 36.4481 111.519 36.5895C112.203 36.7309 112.911 36.8958 113.644 37.0843C114.254 37.2493 114.865 37.4614 115.475 37.7206C116.086 37.9798 116.623 38.3333 117.087 38.781C117.576 39.2052 117.967 39.7707 118.26 40.4777C118.553 41.1611 118.699 42.0212 118.699 43.0581C118.699 44.5427 118.394 45.7916 117.783 46.8049C117.173 47.8182 116.33 48.643 115.256 49.2792C114.181 49.9155 112.899 50.375 111.409 50.6578C109.943 50.9406 108.344 51.082 106.609 51.082C104.851 51.082 103.41 50.9759 102.286 50.7638C101.187 50.5282 100.32 50.2808 99.6853 50.0215C98.9281 49.7152 98.3664 49.3617 98 48.9611L99.2456 44.1185H105.694C105.669 44.3306 105.645 44.6251 105.62 45.0022C105.596 45.3557 105.584 45.6384 105.584 45.8505C105.584 46.1333 105.62 46.4279 105.694 46.7342C105.767 47.0406 105.877 47.3233 106.023 47.5826C106.194 47.8418 106.426 48.0539 106.719 48.2188C107.012 48.3838 107.379 48.4662 107.818 48.4662C108.307 48.4662 108.734 48.3602 109.101 48.1481C109.492 47.936 109.809 47.6768 110.053 47.3705C110.322 47.0406 110.517 46.6871 110.639 46.31C110.786 45.9094 110.859 45.5206 110.859 45.1436C110.859 44.6251 110.725 44.1892 110.456 43.8357C110.212 43.4822 109.87 43.1877 109.43 42.952C108.991 42.6928 108.478 42.4807 107.892 42.3158C107.33 42.1272 106.744 41.9387 106.133 41.7502C105.547 41.5853 104.924 41.3849 104.265 41.1493C103.63 40.9136 103.044 40.5837 102.506 40.1596C101.969 39.7354 101.517 39.2052 101.151 38.5689C100.809 37.9091 100.638 37.0725 100.638 36.0592C100.638 34.5511 101.029 33.2904 101.81 32.2771C102.616 31.2402 103.618 30.4036 104.814 29.7674C106.036 29.1311 107.367 28.6834 108.808 28.4242C110.249 28.1414 111.616 28 112.911 28C114.621 28 116.086 28.2003 117.307 28.6009C118.553 28.9779 119.493 29.4257 120.128 29.9441L118.773 34.8574H112.691Z" fill="#18162D"/>
<path d="M139.359 50.7992H131.446L133.644 40.7958H129.138L126.939 50.7992H119.026L123.972 28.3535H131.922L129.76 38.1094H134.23L136.391 28.3535H144.378L139.359 50.7992Z" fill="#18162D"/>
<path d="M150.607 50.7992H142.693L147.639 28.3535H155.589L150.607 50.7992Z" fill="#18162D"/>
<path d="M165.671 41.114C166.403 41.114 167.014 40.8194 167.502 40.2303C168.015 39.6411 168.43 38.9224 168.748 38.0741C169.09 37.2257 169.334 36.342 169.481 35.423C169.627 34.504 169.701 33.7027 169.701 33.0194C169.701 32.3831 169.591 31.8529 169.371 31.4287C169.151 30.981 168.675 30.7571 167.942 30.7571H166.293L163.985 41.114H165.671ZM163.472 43.3762L161.824 50.7992H153.91L158.856 28.3535H167.319C168.711 28.3535 169.981 28.4242 171.129 28.5656C172.277 28.707 173.266 28.9897 174.097 29.4139C174.927 29.8381 175.575 30.4508 176.039 31.252C176.503 32.0296 176.735 33.0783 176.735 34.3979C176.735 35.6233 176.527 36.7898 176.112 37.8973C175.721 38.9813 175.074 39.9357 174.17 40.7605C173.291 41.5617 172.143 42.1979 170.726 42.6692C169.31 43.1405 167.588 43.3762 165.561 43.3762H163.472Z" fill="#18162D"/>
<path d="M186.905 41.114C187.638 41.114 188.248 40.8194 188.737 40.2303C189.25 39.6411 189.665 38.9224 189.983 38.0741C190.325 37.2257 190.569 36.342 190.715 35.423C190.862 34.504 190.935 33.7027 190.935 33.0194C190.935 32.3831 190.825 31.8529 190.605 31.4287C190.386 30.981 189.909 30.7571 189.177 30.7571H187.528L185.22 41.114H186.905ZM184.707 43.3762L183.058 50.7992H175.145L180.091 28.3535H188.554C189.946 28.3535 191.216 28.4242 192.364 28.5656C193.512 28.707 194.501 28.9897 195.331 29.4139C196.162 29.8381 196.809 30.4508 197.273 31.252C197.737 32.0296 197.969 33.0783 197.969 34.3979C197.969 35.6233 197.762 36.7898 197.346 37.8973C196.956 38.9813 196.308 39.9357 195.405 40.7605C194.525 41.5617 193.378 42.1979 191.961 42.6692C190.544 43.1405 188.822 43.3762 186.795 43.3762H184.707Z" fill="#18162D"/>
<path d="M204.293 50.7992H196.38L201.325 28.3535H209.276L204.293 50.7992Z" fill="#18162D"/>
<path d="M227.124 50.7992H218.551L214.484 34.5746L210.894 50.7992H207.597L212.542 28.3535H221.298L225.145 44.7901L228.772 28.3535H232.143L227.124 50.7992Z" fill="#18162D"/>
<path d="M243.447 40.5484H252.936L250.811 50.7992H246.488L245.792 48.5369H245.645C245.01 49.2439 244.253 49.8448 243.374 50.3397C242.519 50.8345 241.395 51.082 240.003 51.082C238.928 51.082 237.89 50.917 236.889 50.5871C235.912 50.2336 235.033 49.6916 234.251 48.9611C233.494 48.207 232.884 47.2291 232.419 46.0273C231.955 44.8254 231.723 43.3762 231.723 41.6795C231.723 39.8414 232.016 38.0976 232.603 36.4481C233.189 34.7985 234.068 33.3493 235.24 32.1003C236.413 30.8278 237.878 29.8263 239.637 29.0958C241.395 28.3653 243.447 28 245.792 28C247.599 28 249.174 28.2003 250.518 28.6009C251.861 29.0015 253.131 29.4493 254.328 29.9441L252.936 36.8015H246.744C246.769 36.5423 246.805 36.236 246.854 35.8825C246.903 35.529 246.94 35.1638 246.964 34.7867C246.988 34.3861 247.013 33.9973 247.037 33.6203C247.062 33.2432 247.074 32.9133 247.074 32.6305C247.074 32.442 247.062 32.2299 247.037 31.9943C247.013 31.7351 246.952 31.4876 246.854 31.252C246.756 31.0163 246.61 30.8278 246.414 30.6864C246.219 30.5215 245.938 30.439 245.572 30.439C244.937 30.439 244.351 30.6982 243.813 31.2166C243.3 31.7115 242.836 32.3831 242.421 33.2314C242.006 34.0562 241.64 34.9988 241.322 36.0592C241.029 37.1197 240.773 38.2037 240.553 39.3112C240.357 40.3952 240.199 41.4674 240.076 42.5279C239.979 43.5647 239.93 44.472 239.93 45.2496C239.93 45.4853 239.942 45.7798 239.967 46.1333C239.991 46.4868 240.064 46.8403 240.186 47.1937C240.333 47.5236 240.528 47.8182 240.773 48.0774C241.041 48.3131 241.42 48.4309 241.908 48.4309C242.714 48.4309 243.496 48.0067 244.253 47.1584C245.01 46.31 245.584 44.8961 245.975 42.9167H242.897L243.447 40.5484Z" fill="#18162D"/>
<path d="M87.0171 38.9175C87.2312 54.8463 74.2551 62.2763 68.008 64.0002C76.8432 61.5622 90.2299 53.3982 90.2299 38.9175C90.2299 32.97 89.1589 24.5777 79.5205 17.1963C71.3327 10.9258 59.805 9.63164 53.9584 9.44306C53.8663 9.44009 53.7799 9.47178 53.7113 9.53105L44.1142 17.8245C44.0006 17.9227 44.1043 18.1032 44.2513 18.0638C50.4423 16.4047 56.1629 16.1701 62.3856 16.4205C68.8112 16.6791 86.7737 20.8165 87.0171 38.9175Z" fill="#18162D"/>
<path d="M91.1755 39.6776C90.9026 61.1201 107.436 71.122 115.396 73.4426C104.139 70.1606 87.0818 59.1708 87.0818 39.6776C87.0818 31.6715 88.4464 20.3743 100.727 10.4378C111.169 1.98965 125.873 0.251778 133.316 0.00022683C133.421 -0.0033218 133.52 0.0348873 133.598 0.106373L145.767 11.2162C145.929 11.3645 145.781 11.6379 145.571 11.5788C137.719 9.36972 130.457 9.05778 122.56 9.39353C114.373 9.74162 91.4856 15.3111 91.1755 39.6776Z" fill="#3579F4"/>
</svg>
