<svg width="41" height="42" viewBox="0 0 41 42" fill="none" xmlns="http://www.w3.org/2000/svg">
<rect y="0.721191" width="41" height="41" rx="3" fill="#3579F4"/>
<g clip-path="url(#clip0_263_9)">
<path fill-rule="evenodd" clip-rule="evenodd" d="M20.4997 10.0394C14.3245 10.0394 9.31787 15.0461 9.31787 21.2212C9.31787 27.3964 14.3245 32.4031 20.4997 32.4031C26.6748 32.4031 31.6815 27.3964 31.6815 21.2212C31.6815 15.0461 26.6748 10.0394 20.4997 10.0394ZM25.6825 17.644C25.5147 19.4117 24.786 23.7027 24.4161 25.6828C24.2596 26.5214 23.9502 26.8019 23.652 26.8289C23.0026 26.8886 22.5096 26.3994 21.8806 25.9875C20.8966 25.3427 20.3403 24.9411 19.3852 24.3112C18.281 23.5834 18.9967 23.1837 19.6256 22.5304C19.7906 22.359 22.6513 19.7564 22.7072 19.5207C22.7137 19.4909 22.7211 19.3809 22.655 19.3231C22.5888 19.2654 22.4928 19.2849 22.4239 19.3008C22.3251 19.3231 20.7531 20.3621 17.707 22.4177C17.2607 22.7243 16.8563 22.8734 16.4938 22.8659C16.095 22.8575 15.3272 22.6404 14.756 22.454C14.0562 22.2267 13.4989 22.1055 13.5474 21.7198C13.5726 21.5185 13.8493 21.3126 14.3786 21.102C17.6381 19.6819 19.812 18.7454 20.8994 18.2925C24.0052 17.001 24.65 16.7765 25.0712 16.769C25.5986 16.7616 25.7253 17.1967 25.6825 17.644Z" fill="white"/>
</g>
<defs>
<clipPath id="clip0_263_9">
<rect width="22.3636" height="22.3636" fill="white" transform="translate(9.31787 10.0394)"/>
</clipPath>
</defs>
</svg>
