<svg width="41" height="42" viewBox="0 0 41 42" fill="none" xmlns="http://www.w3.org/2000/svg">
<rect y="0.721191" width="41" height="41" rx="3" fill="#3579F4"/>
<path d="M30 19.0442C27.9558 19.0442 26.0608 18.4172 24.5145 17.352V25.0385C24.5145 28.8777 21.2586 32 17.2573 32C15.711 32 14.2766 31.5325 13.0982 30.7386C11.2271 29.4781 10 27.3936 10 25.0385C10 21.1994 13.2559 18.0762 17.2582 18.0762C17.5908 18.0762 17.9157 18.1028 18.2359 18.144V19.0396V22.0052C17.9262 21.9126 17.5994 21.8585 17.2582 21.8585C15.431 21.8585 13.944 23.2849 13.944 25.0385C13.944 26.2596 14.6665 27.3202 15.7215 27.8528C16.1812 28.0848 16.7039 28.2177 17.2592 28.2177C19.0443 28.2177 20.5008 26.8555 20.5677 25.1577L20.5705 10H24.5136C24.5136 10.3282 24.547 10.6481 24.6063 10.9598C24.8844 12.4009 25.776 13.6375 27.0117 14.4103C27.8717 14.9484 28.8981 15.2628 29.999 15.2628L30 19.0442Z" fill="white"/>
</svg>
