<svg width="41" height="42" viewBox="0 0 41 42" fill="none" xmlns="http://www.w3.org/2000/svg">
<rect y="0.721191" width="41" height="41" rx="3" fill="#3579F4"/>
<g clip-path="url(#clip0_263_14)">
<path fill-rule="evenodd" clip-rule="evenodd" d="M28.3853 13.2896C26.2924 11.1949 23.51 10.0404 20.5459 10.0394C14.4378 10.0394 9.46658 15.0097 9.46379 21.1206C9.46286 23.0737 9.97349 24.9802 10.9435 26.6612L9.37061 32.4031L15.2448 30.8618C16.8634 31.7452 18.686 32.2102 20.5403 32.2111H20.545C26.6521 32.2111 31.6243 27.2399 31.6271 21.129C31.6289 18.1686 30.4772 15.3834 28.3853 13.2896ZM20.5459 30.3391H20.5422C18.8891 30.3391 17.2687 29.8946 15.8542 29.055L15.5178 28.8556L12.0319 29.7697L12.9628 26.3705L12.7438 26.022C11.8213 24.5553 11.3349 22.8603 11.3358 21.1206C11.3377 16.0422 15.4703 11.9105 20.5506 11.9105C23.0106 11.9105 25.3233 12.8703 27.0621 14.6109C28.8009 16.3525 29.7579 18.6662 29.7569 21.1271C29.7541 26.2074 25.6224 30.3391 20.5459 30.3391ZM25.5982 23.4408C25.3215 23.302 23.9601 22.632 23.7057 22.5398C23.4522 22.4475 23.2677 22.4009 23.0823 22.6777C22.8969 22.9544 22.3676 23.5787 22.2055 23.7642C22.0443 23.9487 21.8821 23.972 21.6054 23.8331C21.3286 23.6943 20.4359 23.4026 19.3783 22.4587C18.5555 21.7244 17.9992 20.8178 17.838 20.5401C17.6768 20.2624 17.8213 20.1133 17.9592 19.9754C18.084 19.8515 18.2359 19.6521 18.3748 19.4899C18.5145 19.3297 18.5602 19.2141 18.6534 19.0287C18.7456 18.8442 18.7 18.682 18.6301 18.5432C18.5602 18.4053 18.0067 17.042 17.7765 16.4876C17.552 15.9472 17.3237 16.0208 17.1531 16.0124C16.9919 16.004 16.8074 16.0031 16.622 16.0031C16.4375 16.0031 16.1375 16.072 15.884 16.3497C15.6306 16.6274 14.9149 17.2974 14.9149 18.6597C14.9149 20.0229 15.9073 21.3396 16.0452 21.5241C16.1831 21.7086 17.9974 24.5059 20.7751 25.7052C21.4358 25.9903 21.952 26.1608 22.3536 26.2885C23.0171 26.4991 23.6209 26.4692 24.098 26.3984C24.6301 26.3192 25.7361 25.7284 25.9672 25.0818C26.1983 24.4351 26.1983 23.8797 26.1284 23.7651C26.0595 23.6486 25.875 23.5797 25.5982 23.4408Z" fill="white"/>
</g>
<defs>
<clipPath id="clip0_263_14">
<rect width="22.3636" height="22.3636" fill="white" transform="translate(9.31787 10.0394)"/>
</clipPath>
</defs>
</svg>
