<svg width="41" height="42" viewBox="0 0 41 42" fill="none" xmlns="http://www.w3.org/2000/svg">
<rect y="0.721191" width="41" height="41" rx="3" fill="#3579F4"/>
<path d="M31.498 15.6316C31.222 14.5959 30.409 13.7795 29.376 13.5024C27.505 13 20 13 20 13C20 13 12.495 13 10.623 13.5024C9.591 13.7795 8.778 14.5949 8.502 15.6316C8 17.5096 8 21.4272 8 21.4272C8 21.4272 8 25.3447 8.502 27.2227C8.778 28.2584 9.591 29.0748 10.624 29.3519C12.495 29.8543 20 29.8543 20 29.8543C20 29.8543 27.505 29.8543 29.377 29.3519C30.409 29.0748 31.222 28.2594 31.499 27.2227C32 25.3447 32 21.4272 32 21.4272C32 21.4272 32 17.5096 31.498 15.6316ZM17.546 24.9848V17.8695L23.818 21.4272L17.546 24.9848Z" fill="white"/>
</svg>
